<svg width="63" height="63" viewBox="0 0 63 63" fill="none" xmlns="http://www.w3.org/2000/svg">
<path d="M58.5897 28.4687L56.9583 21.9429C57.4043 21.8481 57.739 21.4524 57.739 20.9783V19.9262C57.739 17.6417 55.8804 15.7832 53.596 15.7832H46.165V13.6129C46.165 12.4887 45.2505 11.5742 44.1263 11.5742H6.24734C5.12318 11.5742 4.20869 12.4887 4.20869 13.6129V31.5002C4.20869 32.0449 4.65031 32.4867 5.19516 32.4867C5.73989 32.4867 6.18163 32.045 6.18163 31.5002V13.6129C6.18163 13.5766 6.21104 13.5472 6.24734 13.5472H44.1262C44.1625 13.5472 44.1919 13.5766 44.1919 13.6129V31.5004C44.1919 32.0452 44.6335 32.4869 45.1784 32.4869C45.7231 32.4869 46.1648 32.0453 46.1648 31.5004V30.3822H57.8013C57.8022 30.3822 57.803 30.3824 57.8038 30.3824C57.8048 30.3824 57.8057 30.3823 57.8066 30.3823C59.2385 30.3833 60.4543 31.3231 60.8719 32.6182H57.8046C57.2599 32.6182 56.8181 33.0598 56.8181 33.6047V35.709C56.8181 37.4133 58.2046 38.7998 59.9089 38.7998H61.0269V43.1401H58.4476C57.6003 40.6935 55.2746 38.9312 52.5436 38.9312C49.8126 38.9312 47.4867 40.6935 46.6396 43.1401H46.1646V35.7089C46.1646 35.1642 45.723 34.7224 45.1781 34.7224C44.6334 34.7224 44.1917 35.164 44.1917 35.7089V43.1398H23.7255C22.8782 40.6933 20.5525 38.931 17.8215 38.931C15.0905 38.931 12.7646 40.6933 11.9175 43.1398H6.24734C6.21104 43.1398 6.18163 43.1104 6.18163 43.0741V40.9039H10.4562C11.0009 40.9039 11.4426 40.4623 11.4426 39.9175C11.4426 39.3726 11.001 38.931 10.4562 38.931H0.986467C0.441738 38.931 0 39.3726 0 39.9175C0 40.4623 0.441615 40.9039 0.986467 40.9039H4.20882V43.0741C4.20882 44.1983 5.1233 45.1127 6.24746 45.1127H11.5759C11.5756 45.1346 11.5742 45.1564 11.5742 45.1785C11.5742 48.6233 14.3768 51.4258 17.8215 51.4258C21.2662 51.4258 24.0688 48.6233 24.0688 45.1785C24.0688 45.1563 24.0674 45.1346 24.0671 45.1127H46.298C46.2977 45.1346 46.2963 45.1564 46.2963 45.1785C46.2963 48.6233 49.0989 51.4258 52.5436 51.4258C55.9883 51.4258 58.7909 48.6233 58.7909 45.1785C58.7909 45.1563 58.7895 45.1346 58.7892 45.1127H62.0134C62.5581 45.1127 62.9999 44.6711 62.9999 44.1263V33.6044C63 31.0066 61.0833 28.8483 58.5897 28.4687ZM46.165 17.756H53.596C54.7926 17.756 55.7662 18.7295 55.7662 19.9262V19.9919H46.165V17.756ZM46.165 28.4094V21.9647H54.9302L56.5414 28.4094H46.165ZM17.8215 49.4532C15.4645 49.4532 13.547 47.5358 13.547 45.1787C13.547 42.8216 15.4645 40.9042 17.8215 40.9042C20.1785 40.9042 22.096 42.8216 22.096 45.1787C22.096 47.5358 20.1785 49.4532 17.8215 49.4532ZM52.5438 49.4532C50.1869 49.4532 48.2693 47.5358 48.2693 45.1787C48.2693 42.8216 50.1869 40.9042 52.5438 40.9042C54.9008 40.9042 56.8184 42.8216 56.8184 45.1787C56.8184 47.5358 54.9008 49.4532 52.5438 49.4532ZM61.0272 36.8269H59.9092C59.2927 36.8269 58.7912 36.3253 58.7912 35.7089V34.5909H61.0271V36.8269H61.0272Z" fill="white"/>
<path d="M17.8218 43.1396C16.6977 43.1396 15.7832 44.0541 15.7832 45.1783C15.7832 46.3025 16.6977 47.2169 17.8218 47.2169C18.946 47.2169 19.8605 46.3025 19.8605 45.1783C19.8605 44.0541 18.946 43.1396 17.8218 43.1396Z" fill="white"/>
<path d="M52.5445 43.1396C51.4203 43.1396 50.5059 44.0541 50.5059 45.1783C50.5059 46.3025 51.4203 47.2169 52.5445 47.2169C53.6687 47.2169 54.5831 46.3025 54.5831 45.1783C54.5831 44.0541 53.6687 43.1396 52.5445 43.1396Z" fill="white"/>
<path d="M40.9691 38.9316H26.2384C25.6937 38.9316 25.252 39.3733 25.252 39.9181C25.252 40.463 25.6936 40.9046 26.2384 40.9046H40.9691C41.5138 40.9046 41.9556 40.463 41.9556 39.9181C41.9556 39.3733 41.5139 38.9316 40.9691 38.9316Z" fill="white"/>
<path d="M15.7183 34.7227H3.09194C2.54721 34.7227 2.10547 35.1643 2.10547 35.7091C2.10547 36.254 2.54708 36.6956 3.09194 36.6956H15.7183C16.263 36.6956 16.7047 36.254 16.7047 35.7091C16.7047 35.1643 16.263 34.7227 15.7183 34.7227Z" fill="white"/>
<path d="M34.3033 21.3328C33.9182 20.9476 33.2934 20.9476 32.9083 21.3329L24.136 30.105L19.5726 25.5416C19.1873 25.1563 18.5628 25.1563 18.1776 25.5416C17.7924 25.9269 17.7924 26.5513 18.1776 26.9366L23.4386 32.1976C23.6312 32.3903 23.8837 32.4865 24.136 32.4865C24.3884 32.4865 24.641 32.3903 24.8335 32.1976L34.3032 22.7279C34.6884 22.3425 34.6884 21.718 34.3033 21.3328Z" fill="white"/>
</svg>
