<svg width="45" height="45" viewBox="0 0 45 45" fill="none" xmlns="http://www.w3.org/2000/svg">
<path d="M43.5938 28.125C42.8175 28.125 42.1875 28.755 42.1875 29.5312V39.375H2.8125V22.5H18.2812C19.0575 22.5 19.6875 21.87 19.6875 21.0938C19.6875 20.3175 19.0575 19.6875 18.2812 19.6875H2.8125V14.0625H18.2812C19.0575 14.0625 19.6875 13.4325 19.6875 12.6562C19.6875 11.88 19.0575 11.25 18.2812 11.25H2.8125C1.26 11.25 0 12.51 0 14.0625V39.375C0 40.9275 1.26 42.1875 2.8125 42.1875H42.1875C43.74 42.1875 45 40.9275 45 39.375V29.5312C45 28.755 44.37 28.125 43.5938 28.125Z" fill="white"/>
<path d="M12.6562 28.125H7.03125C6.255 28.125 5.625 28.755 5.625 29.5312C5.625 30.3075 6.255 30.9375 7.03125 30.9375H12.6562C13.4325 30.9375 14.0625 30.3075 14.0625 29.5312C14.0625 28.755 13.4325 28.125 12.6562 28.125Z" fill="white"/>
<path d="M44.1478 7.14305L34.3041 2.9243C33.9469 2.77523 33.5503 2.77523 33.1931 2.9243L23.3494 7.14305C22.8347 7.36523 22.5 7.8743 22.5 8.4368V14.0618C22.5 21.799 25.3603 26.3215 33.0497 30.7512C33.2663 30.8749 33.5081 30.9368 33.75 30.9368C33.9919 30.9368 34.2337 30.8749 34.4503 30.7512C42.1397 26.3327 45 21.8102 45 14.0618V8.4368C45 7.8743 44.6653 7.36523 44.1478 7.14305ZM42.1875 14.0618C42.1875 20.5559 40.0387 24.1305 33.75 27.8993C27.4612 24.1221 25.3125 20.5474 25.3125 14.0618V9.36492L33.75 5.74805L42.1875 9.36492V14.0618Z" fill="white"/>
<path d="M38.8481 11.5558C38.2434 11.0776 37.3603 11.1704 36.8709 11.7751L32.4496 17.3045L30.7003 14.6889C30.2643 14.042 29.3896 13.8704 28.7512 14.2979C28.1071 14.7283 27.93 15.6029 28.3603 16.247L31.1728 20.4658C31.4231 20.8398 31.8337 21.0704 32.2837 21.0929C32.3034 21.0929 32.3259 21.0929 32.3428 21.0929C32.7675 21.0929 33.1725 20.9017 33.4425 20.5642L39.0675 13.5329C39.5512 12.9254 39.4556 12.0423 38.8481 11.5558Z" fill="white"/>
</svg>
