<svg width="54" height="52" viewBox="0 0 54 52" fill="none" xmlns="http://www.w3.org/2000/svg">
<g clip-path="url(#clip0)">
<path d="M53.9998 8.91778C53.9998 8.91209 53.9991 8.9064 53.9989 8.90061C53.9983 8.87796 53.9969 8.85562 53.9941 8.83348C53.9931 8.82536 53.9915 8.81723 53.9902 8.80911C53.9871 8.78869 53.9832 8.76858 53.9783 8.74888C53.9764 8.74106 53.9743 8.73334 53.9721 8.72552C53.966 8.70409 53.959 8.68307 53.951 8.66235C53.9495 8.65839 53.9486 8.65432 53.947 8.65047L51.8012 3.3609C51.5849 2.8279 51.0611 2.4834 50.4667 2.4834H46.5598C46.1339 2.4834 45.7887 2.81581 45.7887 3.22592C45.7887 3.63603 46.1339 3.96844 46.5598 3.96844H50.3921L52.0997 8.1781H35.9552L34.9437 3.96844H40.9061C41.332 3.96844 41.6772 3.63603 41.6772 3.22592C41.6772 2.81581 41.332 2.4834 40.9061 2.4834H33.9738H26.2042H9.71117C9.11674 2.4834 8.59299 2.8279 8.37667 3.3611L6.23092 8.65047C6.22933 8.65443 6.22849 8.65849 6.22691 8.66235C6.21889 8.68297 6.21193 8.70399 6.20581 8.72552C6.2036 8.73334 6.20149 8.74106 6.19959 8.74888C6.19474 8.76868 6.19084 8.78879 6.18767 8.80911C6.18641 8.81723 6.18483 8.82536 6.18377 8.83348C6.18113 8.85562 6.17966 8.87796 6.17902 8.90061C6.17892 8.9063 6.17818 8.91199 6.17808 8.91778C6.17808 8.91869 6.17797 8.91961 6.17797 8.92052V19.8293C6.17797 20.2394 6.52317 20.5718 6.94905 20.5718C7.37493 20.5718 7.72013 20.2394 7.72013 19.8293V9.66314H24.0648V20.9496C24.0648 21.3909 24.3348 21.7931 24.7528 21.9742C24.9058 22.0405 25.0688 22.0729 25.2307 22.0729C25.5108 22.0729 25.7878 21.9761 26.0051 21.7906L30.089 18.3066L34.1728 21.7905C34.5157 22.0833 35.0074 22.1553 35.4254 21.9742C35.8432 21.793 36.1132 21.3909 36.1132 20.9496V9.66314H52.4578V42.9678C52.4578 43.5006 52.0075 43.9341 51.4542 43.9341H37.3159C37.3159 43.9257 37.3148 43.9173 37.3147 43.9088C37.3139 43.8422 37.3113 43.7757 37.3054 43.7097C38.633 44.0486 40.0514 43.3916 40.5834 42.1353C40.8632 41.4744 40.8591 40.7482 40.5717 40.0905C40.5446 40.0285 40.5147 39.9684 40.4833 39.9092C40.4775 39.8983 40.4719 39.8874 40.4661 39.8766C40.4352 39.8201 40.4023 39.765 40.3676 39.7113C40.3609 39.7008 40.3539 39.6906 40.347 39.6803C40.3103 39.6251 40.2723 39.571 40.2317 39.5189C40.2309 39.5179 40.2301 39.517 40.2293 39.5161C40.189 39.4646 40.1464 39.415 40.1025 39.3666C40.0944 39.3577 40.0865 39.3488 40.0784 39.34C40.0349 39.2932 39.9896 39.248 39.9428 39.2045C39.9336 39.1959 39.9243 39.1877 39.915 39.1794C39.866 39.135 39.8158 39.0918 39.7635 39.0511C39.7617 39.0498 39.7599 39.0485 39.7581 39.0472C39.7066 39.0072 39.6532 38.9695 39.5986 38.9331C39.5888 38.9265 39.5791 38.9198 39.5691 38.9133C39.5146 38.8779 39.4587 38.8445 39.4013 38.8127C39.3966 38.8101 39.3922 38.8071 39.3874 38.8044C39.7133 38.5328 39.9705 38.1892 40.138 37.7937C40.4178 37.1328 40.4137 36.4066 40.1263 35.7488C39.8749 35.1733 39.4328 34.7103 38.8667 34.4231C38.7858 34.3821 38.7024 34.3446 38.6166 34.311L26.6157 29.5988L32.2019 27.9338C33.5309 27.5376 34.2794 26.1726 33.8704 24.8912C33.7178 24.4128 33.4152 24.0094 33.0244 23.7146C32.4427 23.2757 31.6653 23.0776 30.8943 23.2335C30.8906 23.2343 30.887 23.2349 30.8833 23.2358C30.8406 23.2451 26.5582 24.1723 22.0856 25.0122C21.8872 25.0494 21.6939 25.0854 21.5033 25.1207C21.3508 25.149 21.2004 25.1768 21.0528 25.2038C21.0104 25.2116 20.9679 25.2193 20.9258 25.2271C20.6653 25.2747 20.413 25.3203 20.1676 25.3642C20.0689 25.3818 19.971 25.3993 19.8747 25.4164C14.2578 26.4128 12.6799 26.4307 12.242 26.3736C12.2403 26.3734 12.2388 26.3732 12.2371 26.3729C12.2305 26.372 12.224 26.3711 12.2178 26.3701C12.2134 26.3694 12.2093 26.3687 12.2052 26.3681C12.2022 26.3676 12.1991 26.3671 12.1962 26.3667C12.1689 26.3619 12.1476 26.3569 12.1311 26.3522L12.0048 26.3026L12.1623 25.9308C12.3171 25.5652 12.3148 25.1634 12.1558 24.7995C12.1161 24.7085 12.0676 24.6226 12.0115 24.5425C11.8432 24.3025 11.6052 24.1157 11.3204 24.0038L7.17887 22.3777C6.79929 22.2285 6.38195 22.2309 6.00405 22.3839C5.62605 22.537 5.33275 22.8227 5.17792 23.1882L0.113634 35.1485C-0.205936 35.9032 0.171747 36.7675 0.955484 37.0753L5.09713 38.7015C5.28623 38.7758 5.48188 38.8109 5.67457 38.8109C6.28027 38.8109 6.8555 38.4634 7.09797 37.8909L7.13605 37.801L8.09096 38.1758C8.09149 38.1761 8.09201 38.1764 8.09265 38.1766C9.006 38.5352 9.84754 39.0468 10.5759 39.6818C10.7084 39.7973 10.837 39.9168 10.9618 40.0402C11.0866 40.1636 11.2072 40.291 11.3238 40.422C11.382 40.4875 11.4393 40.554 11.4953 40.6214C12.5566 41.8958 13.9479 42.8954 15.5187 43.5122L16.593 43.934H8.72377C8.17048 43.934 7.72024 43.5005 7.72024 42.9677V41.0889C7.72024 40.6787 7.37504 40.3463 6.94916 40.3463C6.52327 40.3463 6.17808 40.6787 6.17808 41.0889V42.9677C6.17808 44.3194 7.31998 45.4191 8.72377 45.4191H20.3752L30.3083 49.3193C30.6503 49.4535 31.004 49.5172 31.3524 49.5171C32.447 49.5171 33.4867 48.8889 33.925 47.8541C34.1047 47.4297 34.1624 46.9861 34.114 46.5596C34.6306 46.631 35.1663 46.5655 35.6519 46.3636C36.1454 46.1583 36.5544 45.8314 36.8448 45.419H51.4544C52.858 45.419 54 44.3194 54 42.9676V8.92062C53.9999 8.91961 53.9998 8.91879 53.9998 8.91778ZM26.8172 3.96844H33.3607L34.3722 8.1781H25.8057L26.8172 3.96844ZM24.2228 8.1781H8.0782L9.78584 3.96844H25.2343L24.2228 8.1781ZM34.5713 20.1463H34.5712L30.8627 16.9826C30.6421 16.7945 30.3656 16.7005 30.0892 16.7005C29.8126 16.7005 29.536 16.7945 29.3155 16.9826L25.6071 20.1463V9.66314H34.5713V20.1463ZM5.67267 37.3237L1.54431 35.7028L6.60322 23.7555L10.7316 25.3766L5.67267 37.3237ZM36.4785 41.8048L35.5935 41.4572C35.593 41.457 35.5926 41.4569 35.5922 41.4567C35.5919 41.4566 35.5916 41.4564 35.5913 41.4563C35.5911 41.4563 35.591 41.4562 35.5909 41.4562L26.3745 37.8374C25.9802 37.6827 25.5302 37.8649 25.3693 38.2447C25.2085 38.6245 25.3978 39.0578 25.7923 39.2127L35.009 42.8316C35.0475 42.8467 35.0847 42.8635 35.1207 42.8818C35.1308 42.887 35.1402 42.8933 35.1501 42.8987C35.1754 42.9125 35.2008 42.9263 35.2247 42.9417C35.2362 42.9491 35.2468 42.9576 35.258 42.9653C35.2792 42.9799 35.3008 42.9944 35.3208 43.0102C35.333 43.0198 35.3439 43.0304 35.3556 43.0404C35.3736 43.0557 35.3919 43.0705 35.4088 43.0868C35.4205 43.098 35.4309 43.1103 35.4421 43.1218C35.4576 43.1379 35.4735 43.1536 35.4881 43.1705C35.4992 43.1834 35.5089 43.1971 35.5194 43.2104C35.5326 43.227 35.5463 43.2434 35.5584 43.2607C35.5687 43.2751 35.5774 43.2903 35.5869 43.305C35.5979 43.3221 35.6095 43.3389 35.6195 43.3564C35.6286 43.3723 35.6362 43.3888 35.6445 43.405C35.6534 43.4224 35.663 43.4394 35.671 43.4572C35.6787 43.4743 35.6849 43.4919 35.6918 43.5093C35.6987 43.5269 35.7063 43.5441 35.7124 43.562C35.7186 43.58 35.7232 43.5984 35.7284 43.6165C35.7335 43.6345 35.7393 43.6522 35.7437 43.6704C35.748 43.6888 35.7507 43.7074 35.7542 43.7259C35.7577 43.7444 35.7617 43.7627 35.7642 43.7814C35.7668 43.8001 35.7677 43.819 35.7693 43.8377C35.7709 43.8566 35.7732 43.8754 35.7738 43.8943C35.7744 43.9129 35.7735 43.9317 35.7733 43.9504C35.7731 43.9697 35.7734 43.989 35.7721 44.0084C35.771 44.0268 35.7681 44.0451 35.766 44.0635C35.7638 44.0833 35.7621 44.1031 35.7587 44.1228C35.7557 44.1409 35.7509 44.1589 35.747 44.177C35.7426 44.197 35.7389 44.217 35.7333 44.2369C35.7285 44.2545 35.7219 44.2719 35.7161 44.2894C35.7096 44.3093 35.7036 44.3292 35.6959 44.3488C35.6893 44.3623 35.6829 44.3759 35.6769 44.3896C35.6755 44.3928 35.6748 44.396 35.6735 44.3991C35.5531 44.6669 35.3307 44.8797 35.0404 45.0004C34.7208 45.1332 34.3549 45.1378 34.0364 45.0127L32.4035 44.3716C32.3959 44.3686 32.3882 44.3666 32.3806 44.3638C32.3729 44.3605 32.3656 44.3566 32.3578 44.3536L24.8615 41.4102C24.467 41.2554 24.0171 41.4376 23.8564 41.8175C23.6956 42.1972 23.8849 42.6306 24.2792 42.7855L31.7755 45.7288C31.7835 45.732 31.7916 45.7342 31.7998 45.7371C31.807 45.7401 31.8138 45.7439 31.8213 45.7467C32.4504 45.9938 32.7536 46.6877 32.4971 47.2935C32.2405 47.8995 31.5203 48.1916 30.8908 47.9443L20.8191 43.9897C20.8187 43.9895 20.8183 43.9893 20.8178 43.9891L16.1013 42.1371C15.271 41.8111 14.5001 41.3586 13.8195 40.8019C13.4111 40.4679 13.0353 40.0965 12.6987 39.6923C12.367 39.294 12.0031 38.9226 11.6116 38.5813C10.7502 37.8304 9.75515 37.2254 8.67525 36.8013C8.67515 36.8013 8.67504 36.8012 8.67494 36.8012L7.71876 36.4258L9.62321 31.9281L11.4229 27.6779L11.5557 27.73C11.6807 27.779 11.8589 27.8487 12.3386 27.8662C12.9379 27.8923 13.9293 27.832 15.7054 27.5904C16.9135 27.4261 18.3954 27.1884 20.1254 26.8819C20.1681 26.8744 20.2103 26.8669 20.2534 26.8593C20.3343 26.8448 20.416 26.8302 20.4981 26.8156C20.5619 26.8042 20.626 26.7926 20.6907 26.781C20.7643 26.7677 20.8382 26.7544 20.9127 26.7408C20.9917 26.7265 21.0716 26.712 21.152 26.6973C21.2163 26.6855 21.2805 26.6738 21.3455 26.6619C21.4435 26.644 21.5432 26.6256 21.6431 26.6071C21.6946 26.5975 21.7455 26.5882 21.7974 26.5787C21.9506 26.5502 22.1057 26.5214 22.2637 26.4918C26.7209 25.657 31.023 24.7278 31.2163 24.6859C31.2356 24.6821 31.2549 24.6798 31.2742 24.6771C31.7695 24.6065 32.2548 24.8824 32.3968 25.3274C32.4467 25.4838 32.4525 25.6434 32.4211 25.7935C32.352 26.1239 32.1027 26.4089 31.7463 26.5151L24.1017 28.7935C23.7905 28.8863 23.5734 29.1572 23.5594 29.4706C23.5453 29.784 23.737 30.0721 24.0386 30.1905L38.0347 35.6861C38.3396 35.8058 38.5777 36.0326 38.7053 36.3248C38.8329 36.617 38.8348 36.9395 38.7105 37.2329C38.5861 37.5265 38.3507 37.7558 38.0473 37.8787C37.8956 37.94 37.7361 37.9711 37.5763 37.972C37.574 37.972 37.5716 37.9717 37.5693 37.9717C37.5318 37.9717 37.4943 37.9703 37.4569 37.9669C37.4458 37.9659 37.4348 37.9637 37.4238 37.9625C37.3952 37.9591 37.3666 37.956 37.3382 37.9507C37.3203 37.9473 37.3026 37.9423 37.2848 37.9382C37.2635 37.9333 37.242 37.9292 37.221 37.9232C37.1991 37.917 37.1777 37.9087 37.1562 37.9013C37.1391 37.8954 37.1217 37.8906 37.1048 37.884L27.8873 34.2647C27.493 34.1098 27.043 34.2921 26.8822 34.6719C26.7213 35.0517 26.9107 35.4851 27.3051 35.6399L38.48 40.0277C38.5563 40.0576 38.6283 40.0943 38.6955 40.1369C38.8971 40.2649 39.0549 40.4472 39.1506 40.6664C39.2623 40.922 39.2777 41.2009 39.1965 41.4632C39.1849 41.5007 39.1713 41.5379 39.1558 41.5745C39.1397 41.6124 39.1219 41.6491 39.1024 41.6844C39.0569 41.7667 39.0016 41.841 38.9398 41.9088C38.9014 41.9508 38.8604 41.99 38.8167 42.026C38.8097 42.0317 38.8034 42.0382 38.7963 42.0436C38.5149 42.2653 38.1387 42.3605 37.7712 42.289C37.6966 42.2745 37.6225 42.2539 37.5495 42.2252L36.4785 41.8048Z" fill="white"/>
</g>
<defs>
<clipPath id="clip0">
<rect width="54" height="52" fill="white"/>
</clipPath>
</defs>
</svg>
