<svg width="50" height="50" viewBox="0 0 50 50" fill="none" xmlns="http://www.w3.org/2000/svg">
<path d="M47.0232 30.3559L43.5235 23.482C43.3567 23.1545 43.0203 22.9482 42.6528 22.9482H24.9994H7.34591C6.97835 22.9482 6.64195 23.1545 6.47517 23.482L2.97547 30.3559C2.8213 30.6589 2.83556 31.0201 3.01319 31.3099C3.19082 31.5997 3.5063 31.7763 3.84612 31.7763H5.06568V49.0229C5.06568 49.5624 5.5031 49.9999 6.04273 49.9999H43.9529C44.4925 49.9999 44.93 49.5624 44.93 49.0229V31.7764H46.1524C46.4923 31.7764 46.8078 31.5997 46.9853 31.31C47.1631 31.0201 47.1774 30.6589 47.0232 30.3559ZM42.0538 24.9023L44.5587 29.8222H29.0981L26.5932 24.9023H42.0538ZM7.94494 24.9023H23.4056L20.9007 29.8222H5.44008L7.94494 24.9023ZM42.9761 48.0458H25.9765V42.6307C25.9765 42.0912 25.5391 41.6537 24.9994 41.6537C24.4598 41.6537 24.0224 42.0912 24.0224 42.6307V48.0458H7.01997V31.7764H21.4997C21.8673 31.7764 22.2037 31.5702 22.3705 31.2426L24.0224 27.9979V33.8569C24.0224 34.3964 24.4598 34.8339 24.9994 34.8339C25.5391 34.8339 25.9765 34.3964 25.9765 33.8569V27.9979L27.6284 31.2426C27.7952 31.5702 28.1316 31.7764 28.4991 31.7764H42.9761V48.0458Z" fill="black" fill-opacity="0.2"/>
<path d="M16.6441 42.6953H11.0806C10.5409 42.6953 10.1035 43.1328 10.1035 43.6724C10.1035 44.2119 10.5409 44.6494 11.0806 44.6494H16.6441C17.1837 44.6494 17.6211 44.2119 17.6211 43.6724C17.6211 43.1328 17.1837 42.6953 16.6441 42.6953Z" fill="black" fill-opacity="0.2"/>
<path d="M24.9999 20.0752C30.5284 20.0752 35.0264 15.5717 35.0264 10.0362C35.0263 4.50224 30.5284 0 24.9999 0C19.4698 0 14.9707 4.50224 14.9707 10.0362C14.9707 15.5717 19.4697 20.0752 24.9999 20.0752ZM24.9999 1.9541C29.4511 1.9541 33.0723 5.57973 33.0723 10.0362C33.0723 14.4943 29.4511 18.1211 24.9999 18.1211C20.5473 18.1211 16.9248 14.4943 16.9248 10.0362C16.9248 5.57973 20.5472 1.9541 24.9999 1.9541Z" fill="black" fill-opacity="0.2"/>
<path d="M20.6187 11.5019L23.2193 13.7063C23.3965 13.8565 23.6206 13.938 23.8511 13.938C23.8788 13.938 23.9067 13.9369 23.9345 13.9345C24.1938 13.9122 24.4335 13.7876 24.6005 13.588L29.4945 7.73876C29.8408 7.32498 29.786 6.70876 29.3722 6.36239C28.9583 6.01632 28.3422 6.07094 27.9959 6.48482L23.7328 11.5798L21.8824 10.0112C21.4708 9.66228 20.8542 9.71289 20.5054 10.1247C20.1563 10.5364 20.2071 11.1529 20.6187 11.5019Z" fill="black" fill-opacity="0.2"/>
<path d="M5.80517 11.0127H10.0325C10.5721 11.0127 11.0095 10.5752 11.0095 10.0356C11.0095 9.49612 10.5721 9.05859 10.0325 9.05859H5.80517C5.26555 9.05859 4.82812 9.49612 4.82812 10.0356C4.82812 10.5752 5.26555 11.0127 5.80517 11.0127Z" fill="black" fill-opacity="0.2"/>
<path d="M5.34954 4.21448L9.57684 6.444C9.72223 6.5207 9.87807 6.55705 10.0319 6.55705C10.3826 6.55705 10.7218 6.3676 10.8969 6.0356C11.1486 5.55831 10.9658 4.96729 10.4885 4.7156L6.26113 2.48608C5.78404 2.23439 5.19282 2.4171 4.94114 2.89448C4.68945 3.37177 4.87225 3.96279 5.34954 4.21448Z" fill="black" fill-opacity="0.2"/>
<path d="M4.94087 17.1768C5.11586 17.509 5.45509 17.6988 5.80615 17.6988C5.95964 17.6988 6.11548 17.6625 6.26067 17.586L10.488 15.3593C10.9654 15.1078 11.1486 14.5169 10.8971 14.0395C10.6456 13.562 10.0547 13.3789 9.57727 13.6303L5.34996 15.857C4.87258 16.1085 4.68948 16.6994 4.94087 17.1768Z" fill="black" fill-opacity="0.2"/>
<path d="M39.9634 11.0127H44.1907C44.7303 11.0127 45.1677 10.5752 45.1677 10.0356C45.1677 9.49612 44.7303 9.05859 44.1907 9.05859H39.9634C39.4238 9.05859 38.9863 9.49612 38.9863 10.0356C38.9863 10.5752 39.4238 11.0127 39.9634 11.0127Z" fill="black" fill-opacity="0.2"/>
<path d="M39.9643 6.55711C40.118 6.55711 40.2739 6.52077 40.4193 6.44407L44.6466 4.21454C45.1239 3.96285 45.3067 3.37184 45.055 2.89455C44.8032 2.41726 44.2123 2.23426 43.735 2.48614L39.5077 4.71567C39.0305 4.96736 38.8477 5.55837 39.0993 6.03566C39.2744 6.36766 39.6135 6.55711 39.9643 6.55711Z" fill="black" fill-opacity="0.2"/>
<path d="M39.5082 15.3603L43.7355 17.587C43.8808 17.6635 44.0365 17.6998 44.19 17.6998C44.5411 17.6998 44.8803 17.5101 45.0553 17.1779C45.3068 16.7005 45.1236 16.1095 44.6462 15.8581L40.4189 13.6314C39.9414 13.3799 39.3506 13.563 39.0991 14.0406C38.8476 14.5179 39.0308 15.1089 39.5082 15.3603Z" fill="black" fill-opacity="0.2"/>
<path d="M24.9985 37.2666C24.4589 37.2666 24.0215 37.7041 24.0215 38.2437V38.2492C24.0215 38.7887 24.4589 39.2235 24.9985 39.2235C25.5382 39.2235 25.9756 38.7833 25.9756 38.2437C25.9756 37.7042 25.5382 37.2666 24.9985 37.2666Z" fill="black" fill-opacity="0.2"/>
</svg>
