<svg width="58" height="58" viewBox="0 0 58 58" fill="none" xmlns="http://www.w3.org/2000/svg">
<path d="M29.0064 52.1015C28.7986 52.1015 28.5992 52.019 28.4522 51.872C28.3052 51.725 28.2227 51.5256 28.2227 51.3177V29.9361C28.2227 29.7283 28.3052 29.5289 28.4522 29.3819C28.5992 29.2349 28.7986 29.1523 29.0064 29.1523C29.2143 29.1523 29.4137 29.2349 29.5607 29.3819C29.7076 29.5289 29.7902 29.7283 29.7902 29.9361V50.2455L48.6731 44.237V30.8657C48.6731 30.6578 48.7557 30.4585 48.9027 30.3115C49.0497 30.1645 49.2491 30.0819 49.4569 30.0819C49.6648 30.0819 49.8642 30.1645 50.0111 30.3115C50.1581 30.4585 50.2407 30.6578 50.2407 30.8657V44.81C50.2406 44.9767 50.1873 45.1389 50.0886 45.2732C49.99 45.4076 49.851 45.5069 49.6921 45.5569L29.24 52.0623C29.1646 52.087 29.0858 52.1003 29.0064 52.1015Z" fill="black" fill-opacity="0.2"/>
<path d="M35.5157 37.2299C35.3079 37.2299 35.1086 37.1473 34.9616 37.0003L28.4562 30.4949C28.3648 30.4035 28.2974 30.2909 28.26 30.1672C28.2227 30.0435 28.2165 29.9125 28.242 29.7858C28.2675 29.6591 28.324 29.5407 28.4063 29.4411C28.4887 29.3415 28.5944 29.2638 28.7141 29.2149L49.1646 20.8434C49.3133 20.7826 49.4772 20.769 49.6339 20.8045C49.7907 20.84 49.9327 20.9227 50.0408 21.0416L56.2374 27.8606C56.3224 27.9542 56.3834 28.0669 56.4153 28.1892C56.4473 28.3116 56.4492 28.4398 56.4208 28.5629C56.3925 28.6861 56.3348 28.8006 56.2526 28.8967C56.1705 28.9928 56.0663 29.0675 55.949 29.1146L35.8057 37.1735C35.7135 37.2105 35.6151 37.2297 35.5157 37.2299ZM30.3961 30.2151L35.7046 35.5236L54.3179 28.0777L49.25 22.5034L30.3961 30.2151Z" fill="black" fill-opacity="0.2"/>
<path d="M22.5004 37.2303C22.4005 37.2303 22.3015 37.2111 22.2088 37.1739L2.06795 29.1127C1.95065 29.0656 1.84647 28.9908 1.76431 28.8947C1.68215 28.7987 1.62445 28.6842 1.59612 28.561C1.56778 28.4378 1.56966 28.3096 1.6016 28.1873C1.63353 28.065 1.69458 27.9522 1.77952 27.8586L7.97611 21.0397C8.08423 20.9208 8.22627 20.838 8.38301 20.8025C8.53975 20.7671 8.70361 20.7806 8.85238 20.8414L29.3044 29.2106C29.4241 29.2595 29.5298 29.3372 29.6122 29.4368C29.6945 29.5364 29.751 29.6548 29.7765 29.7815C29.802 29.9082 29.7958 30.0392 29.7585 30.1629C29.7211 30.2866 29.6537 30.3992 29.5623 30.4906L23.0569 36.996C22.9842 37.0699 22.8976 37.1287 22.8021 37.1689C22.7066 37.2091 22.6041 37.23 22.5004 37.2303ZM3.699 28.0765L22.3123 35.5225L27.6201 30.2155L8.76695 22.503L3.699 28.0765Z" fill="black" fill-opacity="0.2"/>
<path d="M29.0054 52.1015C28.9256 52.1012 28.8463 52.0888 28.7702 52.0647L8.31818 45.5593C8.1592 45.5093 8.02029 45.4099 7.92163 45.2756C7.82297 45.1413 7.76969 44.979 7.76953 44.8123V30.8657C7.76953 30.6578 7.85211 30.4585 7.9991 30.3115C8.14608 30.1645 8.34544 30.0819 8.55331 30.0819C8.76119 30.0819 8.96055 30.1645 9.10753 30.3115C9.25452 30.4585 9.3371 30.6578 9.3371 30.8657V44.237L28.2216 50.2463V29.9361C28.2216 29.7283 28.3042 29.5289 28.4511 29.3819C28.5981 29.2349 28.7975 29.1523 29.0054 29.1523C29.2132 29.1523 29.4126 29.2349 29.5596 29.3819C29.7066 29.5289 29.7891 29.7283 29.7891 29.9361V51.3177C29.7891 51.5256 29.7066 51.725 29.5596 51.872C29.4126 52.019 29.2132 52.1015 29.0054 52.1015Z" fill="black" fill-opacity="0.2"/>
<path d="M49.4573 22.3528C49.3557 22.3528 49.2551 22.3331 49.161 22.2948L28.7121 13.9279C28.5925 13.879 28.4868 13.8013 28.4044 13.7018C28.322 13.6022 28.2656 13.4837 28.24 13.3571C28.2145 13.2304 28.2207 13.0993 28.2581 12.9756C28.2955 12.8519 28.3629 12.7393 28.4542 12.648L34.9597 6.14256C35.0682 6.03406 35.2062 5.95982 35.3565 5.92903C35.5068 5.89823 35.6629 5.91225 35.8054 5.96934L55.9486 14.0298C56.0659 14.0769 56.1701 14.1516 56.2522 14.2477C56.3344 14.3438 56.3921 14.4583 56.4204 14.5814C56.4488 14.7046 56.4469 14.8328 56.415 14.9552C56.383 15.0775 56.322 15.1902 56.237 15.2838L50.0404 22.1027C49.966 22.1828 49.8757 22.2463 49.7753 22.2894C49.6749 22.3325 49.5666 22.354 49.4573 22.3528ZM30.3965 12.9231L49.2504 20.6355L54.3168 15.062L35.7035 7.61607L30.3965 12.9231Z" fill="black" fill-opacity="0.2"/>
<path d="M8.55611 22.3522C8.44692 22.3522 8.33892 22.3294 8.23904 22.2853C8.13916 22.2412 8.0496 22.1767 7.97611 22.0959L1.77952 15.2832C1.69458 15.1896 1.63353 15.0769 1.6016 14.9546C1.56966 14.8323 1.56778 14.704 1.59612 14.5809C1.62445 14.4577 1.68215 14.3432 1.76431 14.2471C1.84647 14.151 1.95065 14.0763 2.06795 14.0292L22.2112 5.97032C22.3536 5.91323 22.5097 5.89921 22.66 5.93C22.8104 5.96079 22.9484 6.03504 23.0569 6.14353L29.5623 12.6489C29.6537 12.7403 29.7211 12.8529 29.7585 12.9766C29.7958 13.1003 29.802 13.2313 29.7765 13.358C29.751 13.4847 29.6945 13.6031 29.6122 13.7027C29.5298 13.8023 29.4241 13.88 29.3044 13.9289L8.8563 22.2942C8.76102 22.333 8.65901 22.3527 8.55611 22.3522ZM3.69665 15.063L8.7646 20.6373L27.6177 12.9248L22.3115 7.61391L3.69665 15.063Z" fill="black" fill-opacity="0.2"/>
</svg>
