<svg width="29" height="29" viewBox="0 0 29 29" fill="none" xmlns="http://www.w3.org/2000/svg">
<rect x="10.7623" y="10.8975" width="7.20497" height="7.20497" fill="white"/>
<rect x="10.7623" y="10.8975" width="7.20497" height="7.20497" fill="white"/>
<rect x="10.7623" y="10.8975" width="7.20497" height="7.20497" fill="white"/>
<rect x="21.2996" y="10.8975" width="7.20497" height="7.20497" fill="white"/>
<rect x="21.2996" y="10.8975" width="7.20497" height="7.20497" fill="white"/>
<rect x="21.2996" y="10.8975" width="7.20497" height="7.20497" fill="white"/>
<rect width="7.20497" height="7.20497" fill="white"/>
<rect width="7.20497" height="7.20497" fill="white"/>
<rect width="7.20497" height="7.20497" fill="white"/>
<rect x="10.7623" width="7.20497" height="7.20497" fill="white"/>
<rect x="10.7623" width="7.20497" height="7.20497" fill="white"/>
<rect x="10.7623" width="7.20497" height="7.20497" fill="white"/>
<rect x="21.2996" width="7.20497" height="7.20497" fill="white"/>
<rect x="21.2996" width="7.20497" height="7.20497" fill="white"/>
<rect x="21.2996" width="7.20497" height="7.20497" fill="white"/>
<rect y="10.8975" width="7.20497" height="7.20497" fill="white"/>
<rect y="10.8975" width="7.20497" height="7.20497" fill="white"/>
<rect y="10.8975" width="7.20497" height="7.20497" fill="white"/>
<rect y="21.795" width="7.20497" height="7.20497" fill="white"/>
<rect y="21.795" width="7.20497" height="7.20497" fill="white"/>
<rect y="21.795" width="7.20497" height="7.20497" fill="white"/>
<rect x="10.7623" y="21.795" width="7.20497" height="7.20497" fill="white"/>
<rect x="10.7623" y="21.795" width="7.20497" height="7.20497" fill="white"/>
<rect x="10.7623" y="21.795" width="7.20497" height="7.20497" fill="white"/>
<rect x="21.2996" y="21.795" width="7.20497" height="7.20497" fill="white"/>
<rect x="21.2996" y="21.795" width="7.20497" height="7.20497" fill="white"/>
<rect x="21.2996" y="21.795" width="7.20497" height="7.20497" fill="white"/>
</svg>
