<svg width="32" height="32" viewBox="0 0 32 32" fill="none" xmlns="http://www.w3.org/2000/svg">
<g clip-path="url(#clip0)">
<path d="M30.2752 20.5837L27.7358 19.4314L27.0092 18.2571C29.8422 16.4663 31.5596 13.3544 31.5596 10.0003V5.17824C31.5523 4.90668 31.3982 4.65714 31.156 4.53237L24.6312 1.06081C24.411 0.943378 24.1468 0.943378 23.9339 1.06815L17.6147 4.53237C17.3798 4.66448 17.2404 4.90668 17.2477 5.17824V10.0957C17.2404 11.4902 17.5266 12.8773 18.0991 14.1544H12.8073C11.6697 14.1544 10.5908 14.6902 9.89358 15.5929L7.00917 19.3727L2.16514 20.6938C0.888073 21.0388 0.00733945 22.1984 0 23.5195V25.3691C0.00733945 26.9911 1.32844 28.3048 2.95046 28.3195H3.30275C3.84587 30.2865 5.88624 31.4388 7.85321 30.8883C9.10092 30.5434 10.0771 29.5672 10.422 28.3195H21.211C21.7541 30.2865 23.7945 31.4388 25.7615 30.8883C27.0092 30.5434 27.9853 29.5672 28.3303 28.3195H29.0495C30.6716 28.3122 31.9927 26.9984 32 25.3691V23.248C31.9927 22.0957 31.3174 21.0608 30.2752 20.5837ZM18.7156 5.61127L24.3156 2.53604L30.0917 5.61861V10.0003C30.0844 13.3544 28.0734 16.3709 24.9835 17.67C24.9835 17.67 24.9761 17.67 24.9688 17.67L24.2642 17.9709L23.6917 17.714C20.6679 16.3856 18.7156 13.3984 18.7156 10.0883V5.61127ZM6.86238 29.5305C5.62936 29.5305 4.63853 28.5324 4.63853 27.3067C4.63853 26.0737 5.6367 25.0828 6.86238 25.0828C8.09541 25.0828 9.08624 26.081 9.08624 27.3067C9.08624 28.5324 8.08807 29.5232 6.86238 29.5305ZM24.7706 29.5305C23.5376 29.5305 22.5468 28.5324 22.5468 27.3067C22.5468 26.081 23.545 25.0828 24.7706 25.0828C26.0037 25.0828 26.9945 26.081 26.9945 27.3067C27.0018 28.5324 26.0037 29.5232 24.7706 29.5305ZM30.5394 25.3617H30.5321C30.5248 26.1764 29.8642 26.837 29.0495 26.8443H28.433C28.1688 24.8186 26.3193 23.3948 24.2936 23.659C22.6349 23.8718 21.3211 25.1856 21.1083 26.8443H10.5248C10.2605 24.8186 8.41101 23.3948 6.38532 23.659C4.7266 23.8718 3.41284 25.1856 3.2 26.8443H2.95046C2.13578 26.837 1.47523 26.1764 1.46789 25.3617V23.5122C1.47523 22.8516 1.9156 22.2792 2.55413 22.103L7.63303 20.7159C7.78716 20.6718 7.92661 20.5837 8.02936 20.4516L11.0679 16.4737C11.4862 15.9305 12.1321 15.6149 12.8147 15.6149H18.9358C19.978 17.1269 21.4239 18.3232 23.1046 19.0645L23.9853 19.4461C24.1688 19.5269 24.3816 19.5269 24.5725 19.4461L25.5633 19.0204C25.6147 18.9984 25.6661 18.9764 25.7101 18.9544L26.6128 20.4003C26.6862 20.525 26.7963 20.6204 26.9284 20.6792L29.6734 21.9195C30.1945 22.1544 30.5321 22.6755 30.5394 23.248V25.3617Z" fill="#1854FF"/>
<path d="M27.9333 8.38571C27.6764 8.07011 27.2214 8.01873 26.8985 8.26827L26.8911 8.27561L23.4562 11.0719L22.2085 9.61139C21.9443 9.30314 21.4819 9.2591 21.1737 9.52332C20.8654 9.78754 20.8214 10.2499 21.0856 10.5582L21.0929 10.5655L22.803 12.5692C22.8104 12.5839 22.8177 12.5912 22.8251 12.5985C22.8324 12.6059 22.8397 12.6206 22.8544 12.6279C22.8618 12.6352 22.8764 12.6499 22.8838 12.6573C22.8911 12.6646 22.9058 12.6719 22.9131 12.6793C22.9205 12.6866 22.9351 12.694 22.9498 12.7013C22.9645 12.7086 22.9718 12.716 22.9792 12.7233C22.9939 12.7307 23.0012 12.738 23.0159 12.7453C23.0232 12.7527 23.0379 12.76 23.0452 12.76C23.0599 12.7674 23.0746 12.7747 23.0893 12.7747C23.0966 12.782 23.1113 12.782 23.1186 12.7894C23.1333 12.7967 23.148 12.7967 23.1627 12.8041C23.17 12.8041 23.1847 12.8114 23.192 12.8114C23.2067 12.8114 23.2214 12.8187 23.2361 12.8187C23.2434 12.8187 23.2581 12.8261 23.2654 12.8261C23.2874 12.8261 23.3021 12.8261 23.3241 12.8261C23.3315 12.8261 23.3388 12.8261 23.3462 12.8261C23.3682 12.8261 23.3902 12.8261 23.4122 12.8261C23.4195 12.8261 23.4196 12.8261 23.4269 12.8261C23.4416 12.8261 23.4636 12.8187 23.4783 12.8187C23.4856 12.8187 23.4929 12.8187 23.5003 12.8114C23.515 12.8114 23.5296 12.8041 23.5443 12.8041C23.5517 12.8041 23.559 12.7967 23.5663 12.7967C23.581 12.7967 23.5884 12.7894 23.603 12.782C23.6104 12.782 23.6177 12.7747 23.6324 12.7747C23.6397 12.7674 23.6544 12.7674 23.6618 12.76C23.6691 12.7527 23.6838 12.7527 23.6911 12.7453C23.6984 12.738 23.7131 12.738 23.7205 12.7307C23.7278 12.7233 23.7425 12.716 23.7498 12.716C23.7572 12.716 23.7645 12.7013 23.7792 12.7013C23.7865 12.694 23.7939 12.6866 23.8085 12.6793C23.8159 12.6719 23.8232 12.6719 23.8306 12.6646L27.8159 9.42057C28.1315 9.16369 28.1829 8.70864 27.9333 8.38571Z" fill="#1854FF"/>
</g>
<defs>
<clipPath id="clip0">
<rect width="32" height="32" fill="white"/>
</clipPath>
</defs>
</svg>
