<svg width="68" height="55" viewBox="0 0 68 55" fill="none" xmlns="http://www.w3.org/2000/svg">
<path d="M34 5.92734C38.2827 3.08201 44.098 1.33301 50.5 1.33301C56.9057 1.33301 62.7173 3.08201 67 5.92734V53.594C62.7173 50.7487 56.9057 48.9997 50.5 48.9997C44.098 48.9997 38.2827 50.7487 34 53.594M34 5.92734V53.594V5.92734ZM34 5.92734C29.7173 3.08201 23.902 1.33301 17.5 1.33301C11.098 1.33301 5.28267 3.08201 1 5.92734V53.594C5.28267 50.7487 11.098 48.9997 17.5 48.9997C23.902 48.9997 29.7173 50.7487 34 53.594V5.92734Z" stroke="#2F80ED" stroke-width="2" stroke-linecap="round" stroke-linejoin="round"/>
</svg>
